<?xml version="1.0" standalone="no"?>
<!DOCTYPE svg PUBLIC "-//W3C//DTD SVG 20010904//EN"
 "http://www.w3.org/TR/2001/REC-SVG-20010904/DTD/svg10.dtd">
<svg version="1.0" xmlns="http://www.w3.org/2000/svg"
 width="512.000000pt" height="512.000000pt" viewBox="0 0 512.000000 512.000000"
 preserveAspectRatio="xMidYMid meet">
<metadata>
Created by potrace 1.11, written by Peter Selinger 2001-2013
</metadata>
<g transform="translate(0.000000,512.000000) scale(0.100000,-0.100000)"
fill="#000000" stroke="none">
<path d="M0 2560 l0 -2560 2560 0 2560 0 0 2560 0 2560 -2560 0 -2560 0 0
-2560z m3630 689 c116 -31 204 -83 296 -174 87 -86 139 -167 173 -274 31 -96
25 -104 -21 -26 -81 137 -222 252 -374 306 -83 30 -273 37 -369 15 -158 -37
-320 -149 -407 -282 -23 -35 -45 -64 -48 -64 -3 0 -27 7 -54 15 -56 17 -190
19 -256 4 -133 -30 -288 -153 -343 -271 -98 -208 -67 -432 81 -590 25 -27 40
-48 34 -48 -18 0 -157 137 -177 174 -19 36 -20 36 -87 36 l-68 0 0 -60 0 -60
-50 0 -50 0 0 201 c0 118 4 208 10 220 16 28 63 49 113 49 l44 0 17 61 c55
200 211 353 411 404 76 19 185 19 260 0 40 -11 61 -12 63 -5 13 37 109 164
160 212 176 163 407 219 642 157z m512 -276 c12 -42 16 -47 43 -47 26 0 30 4
40 45 10 41 13 44 48 47 l37 3 0 -51 c0 -45 3 -52 26 -62 28 -13 35 -8 75 52
15 22 18 23 48 10 27 -11 31 -17 26 -38 -18 -72 -18 -80 4 -92 18 -9 27 -7 59
20 43 36 53 37 77 9 19 -20 18 -21 -5 -64 -23 -43 -23 -45 -6 -64 18 -20 18
-20 67 4 l48 25 20 -29 20 -28 -39 -38 c-34 -34 -37 -40 -27 -62 11 -25 21
-26 111 -10 5 1 15 -13 22 -30 l14 -33 -49 -25 c-46 -23 -49 -27 -42 -52 7
-25 12 -28 58 -31 48 -3 51 -5 57 -34 8 -39 -1 -48 -51 -55 l-40 -5 -26 83
c-36 115 -88 198 -177 283 -116 110 -271 176 -417 176 -59 0 -61 1 -87 40 -25
38 -34 79 -19 93 3 4 21 7 39 7 31 0 34 -3 46 -47z m-3244 -490 l3 -63 150 0
c233 0 241 -8 237 -215 l-3 -130 -50 0 -50 0 -3 129 c-1 75 -7 135 -14 143 -8
9 -45 13 -139 13 l-128 0 -3 -142 -3 -143 -50 0 -50 0 -3 225 c-1 123 0 231 3
238 3 9 20 12 52 10 l48 -3 3 -62z m-153 22 l0 -30 -180 -5 c-99 -3 -185 -8
-191 -12 -14 -9 -25 -63 -18 -82 10 -25 63 -36 178 -36 171 -1 216 -29 216
-133 0 -58 -18 -89 -65 -112 -35 -17 -66 -20 -242 -23 l-203 -4 0 35 0 35 178
4 c133 2 183 7 195 17 23 19 23 87 0 99 -10 5 -77 12 -148 14 -106 5 -139 9
-172 26 -48 25 -53 35 -53 113 0 52 4 63 27 85 14 13 38 27 52 30 14 3 31 7
36 9 6 2 96 3 200 2 l190 -2 0 -30z m1852 -130 c34 -88 64 -169 68 -180 4 -14
24 32 65 150 33 93 67 176 77 182 26 20 110 16 131 -5 10 -10 42 -89 71 -175
29 -86 56 -157 60 -157 3 0 28 60 55 133 27 72 57 151 67 175 l18 42 57 0 c41
0 55 -3 51 -12 -2 -7 -39 -105 -81 -218 -46 -121 -86 -212 -98 -222 -29 -26
-108 -24 -136 2 -12 12 -22 22 -22 23 0 11 -103 304 -108 309 -4 4 -32 -65
-61 -153 -29 -89 -62 -170 -72 -180 -21 -21 -97 -26 -129 -9 -18 9 -50 84
-140 325 -21 55 -41 108 -45 118 -7 16 -2 18 51 15 l59 -3 62 -160z m-802 30
c44 -22 55 -51 55 -155 0 -165 -14 -175 -250 -175 -236 0 -250 10 -250 169 0
168 11 175 248 176 128 0 171 -3 197 -15z m566 -8 l34 -23 3 -118 c2 -81 -1
-123 -9 -133 -19 -23 -60 -40 -110 -48 -45 -7 -47 -6 -57 23 -12 35 -8 42 28
42 42 0 50 17 50 110 0 96 -7 110 -57 110 -35 0 -36 2 -27 38 6 19 13 22 59
22 38 0 61 -6 86 -23z m1409 8 c44 -23 50 -43 50 -163 0 -100 -2 -110 -22
-130 -32 -29 -96 -41 -220 -42 -129 0 -198 13 -227 44 -20 21 -21 32 -19 142
l3 118 34 23 c32 22 43 23 203 23 131 0 176 -3 198 -15z m350 -15 c0 -29 -2
-30 -46 -30 -83 0 -84 -2 -84 -155 l0 -135 -50 0 -51 0 3 152 3 152 34 23 c28
19 47 23 112 23 l79 0 0 -30z m231 -20 c32 -27 62 -50 67 -50 6 0 37 23 70 50
57 48 63 50 118 50 l59 0 -45 -43 c-25 -23 -66 -60 -93 -82 l-47 -41 99 -84
c55 -47 100 -88 100 -92 1 -5 -24 -8 -55 -8 -53 0 -60 3 -113 48 -99 84 -82
82 -166 13 -74 -62 -75 -62 -132 -59 l-58 3 104 89 104 90 -59 50 c-32 28 -74
66 -94 83 l-35 32 59 1 c57 0 62 -2 117 -50z m488 -121 c26 -9 32 -16 27 -33
-3 -11 -6 -27 -6 -33 0 -8 -15 -13 -41 -13 -33 0 -40 3 -35 16 3 9 6 29 6 45
0 32 3 34 49 18z m-29 -197 c0 -25 -21 -52 -40 -52 -23 0 -25 14 -9 58 9 27
13 30 30 19 10 -6 19 -18 19 -25z m-100 -154 c0 -13 -29 -48 -41 -48 -4 0 0
13 9 30 17 31 32 39 32 18z"/>
<path d="M2027 2342 c-13 -14 -17 -39 -17 -109 0 -98 3 -103 59 -103 38 0 41
5 25 57 -7 25 -17 74 -20 109 -7 67 -18 78 -47 46z"/>
<path d="M1467 2342 c-23 -25 -24 -163 -2 -186 31 -30 225 -35 260 -6 19 16
22 179 3 198 -8 8 -51 12 -128 12 -101 0 -119 -3 -133 -18z"/>
<path d="M3448 2349 c-15 -8 -18 -25 -18 -98 0 -62 4 -92 13 -100 19 -15 244
-16 262 -1 11 9 15 35 15 96 0 113 -2 114 -143 114 -62 0 -120 -5 -129 -11z"/>
</g>
</svg>
